<svg id="svgPath4" width="2440" height="2440" viewBox="0 0 2440 2440" fill="none" xmlns="http://www.w3.org/2000/svg">
<path d="M937 1471.66V964V963.676M937 1471.66V963.676M937 1471.66H290.389V963.676H568.083L599.333 1189.92H626.166L657.416 963.676C757.269 963.676 849.605 963.676 937 963.676" stroke="white" stroke-width="5.85" stroke-miterlimit="10"/>
<path d="M752.389 1295.95L728.139 1471.66" stroke="white" stroke-width="5.85" stroke-miterlimit="10"/>
<path d="M473.667 1295.95L498.473 1471.96" stroke="white" stroke-width="5.85" stroke-miterlimit="10"/>
<path d="M937 963.676V1471.66L1336.67 1471.66V963.676H937Z" stroke="white" stroke-width="5.85" stroke-miterlimit="10"/>
<path d="M1336.67 1280.55H1153.92" stroke="white" stroke-width="5.85" stroke-miterlimit="10"/>
<path d="M1336.67 1154.81H1153.92" stroke="white" stroke-width="5.85" stroke-miterlimit="10"/>
<path d="M1336.67 1471.66V964.18V963.676M1336.67 1471.66V963.676M1336.67 1471.66L1752.56 1471.66V1279.85H1620.28V963.676L1337 963.676C1336.89 963.676 1336.78 963.676 1336.67 963.676" stroke="white" stroke-width="5.85" stroke-miterlimit="10"/>
<path d="M1752.56 1155.34L1752.56 1471.66L2017.14 1471.66V1154.93H2149.61V963.676L1620.28 963.676L1620.61 1155.34H1752.56ZM1752.56 1155.34V1471.66" stroke="white" stroke-width="5.85" stroke-miterlimit="10"/>
</svg>
